<svg width="190" height="30" viewBox="0 0 190 30" fill="none" xmlns="http://www.w3.org/2000/svg">
<path d="M46.7246 28.6744C46.5175 28.6744 46.3269 28.5957 46.1488 28.4424C45.9955 28.2642 45.9167 28.0695 45.9167 27.8665C45.9167 27.7381 45.9292 27.6221 45.954 27.5185L55.0066 2.79281C55.0853 2.51108 55.2386 2.26664 55.4706 2.05949C55.7275 1.82748 56.0755 1.71147 56.5105 1.71147H62.2113C62.6464 1.71147 62.9819 1.82748 63.214 2.05949C63.4708 2.26664 63.6365 2.50694 63.7153 2.79281L72.7264 27.5185C72.7761 27.6221 72.8051 27.7381 72.8051 27.8665C72.8051 28.0737 72.714 28.2642 72.5358 28.4424C72.3825 28.5957 72.1878 28.6744 71.9599 28.6744H67.2244C66.8391 28.6744 66.545 28.5833 66.3378 28.4051C66.1597 28.198 66.0437 28.0198 65.9898 27.8665L64.4859 23.9389H54.2028L52.7403 27.8665C52.6906 28.0198 52.5746 28.2021 52.3923 28.4051C52.2142 28.5833 51.9034 28.6744 51.4684 28.6744H46.7329H46.7246ZM55.7772 18.3914H62.9405L59.3195 8.22434L55.7772 18.3914ZM76.799 28.6744C76.5173 28.6744 76.2853 28.5833 76.1071 28.4051C75.929 28.227 75.8378 27.9949 75.8378 27.7132V2.6768C75.8378 2.39508 75.929 2.16307 76.1071 1.98492C76.2853 1.80676 76.5173 1.71562 76.799 1.71562H88.5445C90.7528 1.71562 92.5633 2.02635 93.9761 2.63952C95.3888 3.25683 96.4287 4.14344 97.0958 5.29521C97.7877 6.42626 98.1357 7.77275 98.1357 9.33882C98.1357 10.2627 97.9575 11.083 97.5971 11.8039C97.2615 12.4958 96.8389 13.0758 96.3252 13.5357C95.8363 13.9997 95.3764 14.3312 94.9372 14.5383C95.915 15.0024 96.7726 15.7564 97.5184 16.8129C98.289 17.8652 98.6743 19.0998 98.6743 20.5085C98.6743 22.203 98.289 23.6655 97.5184 24.9001C96.7726 26.1057 95.6706 27.042 94.2081 27.7132C92.7704 28.3554 90.9972 28.6744 88.8925 28.6744H76.799ZM82.7318 23.6655H88.1219C89.224 23.6655 90.0609 23.3465 90.6243 22.7043C91.1878 22.0621 91.4737 21.3288 91.4737 20.5085C91.4737 19.6094 91.1795 18.8512 90.587 18.2381C90.0236 17.6208 89.1991 17.3142 88.1219 17.3142H82.7318V23.6696V23.6655ZM82.7318 12.4171H87.7781C88.8304 12.4171 89.6134 12.1478 90.1272 11.6092C90.6658 11.0706 90.9351 10.3787 90.9351 9.5294C90.9351 8.70908 90.6658 8.04205 90.1272 7.52831C89.6134 6.98971 88.8304 6.72041 87.7781 6.72041H82.7318V12.4212V12.4171ZM114.008 29.0556C111.567 29.0556 109.475 28.6578 107.731 27.8624C106.012 27.0669 104.661 25.8986 103.687 24.3574C102.739 22.8161 102.212 20.9021 102.109 18.6192C102.084 17.5669 102.072 16.4359 102.072 15.2302C102.072 14.0246 102.084 12.8687 102.109 11.7625C102.212 9.5294 102.751 7.64017 103.729 6.09896C104.707 4.53289 106.065 3.35212 107.81 2.55666C109.554 1.73633 111.621 1.32617 114.012 1.32617C115.706 1.32617 117.272 1.54575 118.71 1.98077C120.148 2.39093 121.407 3.00825 122.484 3.82857C123.562 4.62403 124.398 5.60179 124.987 6.7577C125.604 7.88875 125.923 9.1731 125.948 10.6107C125.973 10.8427 125.898 11.0333 125.716 11.1866C125.563 11.3399 125.368 11.4186 125.14 11.4186H119.941C119.605 11.4186 119.352 11.3523 119.17 11.2239C118.992 11.0706 118.834 10.8013 118.71 10.416C118.35 9.05709 117.761 8.12905 116.937 7.64431C116.141 7.13058 115.151 6.87371 113.97 6.87371C112.558 6.87371 111.439 7.27144 110.619 8.0669C109.798 8.83751 109.347 10.1343 109.272 11.9572C109.193 14.0619 109.193 16.2204 109.272 18.4287C109.351 20.2516 109.798 21.5608 110.619 22.3563C111.439 23.1269 112.558 23.5122 113.97 23.5122C115.151 23.5122 116.154 23.2553 116.974 22.7416C117.794 22.2278 118.374 21.3039 118.706 19.9699C118.809 19.5846 118.95 19.3277 119.128 19.1993C119.336 19.046 119.605 18.9673 119.936 18.9673H125.136C125.368 18.9673 125.558 19.046 125.712 19.1993C125.89 19.3526 125.969 19.5473 125.944 19.7751C125.919 21.2128 125.596 22.5096 124.983 23.6655C124.39 24.7965 123.557 25.7701 122.48 26.5905C121.403 27.3859 120.144 28.0032 118.706 28.4383C117.268 28.8484 115.702 29.0556 114.008 29.0556Z" fill="#1B2736"/>
<path d="M164.437 11.8451C164.358 9.55816 163.849 7.64822 162.896 6.10701C161.947 4.54094 160.584 3.36017 158.815 2.56471C157.042 1.74438 154.9 1.33008 152.385 1.33008H142.371C142.089 1.33008 141.857 1.42123 141.679 1.59938C141.501 1.77753 141.41 2.00954 141.41 2.29126V27.3277C141.41 27.6094 141.497 27.8414 141.679 28.0196C141.857 28.1977 142.089 28.2889 142.371 28.2889H152.58C155.094 28.2889 157.216 27.916 158.935 27.1744C160.679 26.4038 162.005 25.2354 162.904 23.6694C163.828 22.1033 164.342 20.1271 164.445 17.7365C164.47 16.6345 164.483 15.6567 164.483 14.8074C164.483 13.9581 164.47 12.972 164.445 11.841L164.437 11.8451ZM157.464 15.6567C157.464 16.2492 157.439 16.9162 157.385 17.6578C157.361 18.8634 157.153 19.8412 156.768 20.5869C156.408 21.3327 155.857 21.8837 155.111 22.2442C154.394 22.5798 153.483 22.7455 152.377 22.7455H148.296V6.87347H152.186C153.88 6.87347 155.152 7.28363 155.998 8.1081C156.872 8.90356 157.332 10.1755 157.385 11.9197C157.435 12.6406 157.464 13.2952 157.464 13.8835C157.489 14.476 157.489 15.0643 157.464 15.6567Z" fill="#1B2736"/>
<path d="M178.399 28.6742C175.83 28.6742 173.7 28.3138 172.006 27.597C170.311 26.8513 169.027 25.8901 168.153 24.7093C167.279 23.5286 166.819 22.2691 166.765 20.935C166.765 20.7279 166.844 20.5497 166.997 20.3964C167.175 20.2183 167.382 20.1271 167.614 20.1271H172.466C172.826 20.1271 173.096 20.1934 173.274 20.3218C173.481 20.4503 173.659 20.616 173.812 20.8231C174.019 21.2085 174.301 21.5813 174.662 21.9418C175.047 22.3022 175.536 22.5964 176.124 22.8284C176.741 23.0355 177.5 23.135 178.395 23.135C179.882 23.135 181.001 22.903 181.746 22.4431C182.517 21.9791 182.902 21.3535 182.902 20.5539C182.902 19.9904 182.695 19.5264 182.285 19.1659C181.875 18.7806 181.208 18.445 180.284 18.1633C179.385 17.8567 178.179 17.546 176.663 17.2394C174.711 16.8293 173.042 16.3031 171.658 15.6609C170.295 14.9939 169.255 14.1321 168.538 13.0798C167.817 12.0026 167.461 10.6644 167.461 9.07348C167.461 7.48255 167.896 6.10706 168.77 4.87657C169.669 3.64609 170.916 2.68076 172.507 1.98887C174.102 1.29284 175.987 0.944824 178.171 0.944824C179.944 0.944824 181.498 1.17683 182.832 1.63671C184.191 2.10073 185.334 2.7139 186.258 3.48451C187.182 4.25512 187.874 5.07544 188.338 5.94962C188.827 6.79894 189.084 7.6317 189.108 8.45202C189.108 8.65917 189.03 8.84975 188.876 9.0279C188.723 9.1812 188.528 9.25991 188.301 9.25991H183.217C182.935 9.25991 182.691 9.2102 182.484 9.10662C182.277 9.00305 182.098 8.83732 181.945 8.60531C181.792 8.04186 181.382 7.55298 180.715 7.14282C180.072 6.7078 179.227 6.48822 178.171 6.48822C177.04 6.48822 176.153 6.69537 175.515 7.10553C174.898 7.49083 174.591 8.09572 174.591 8.91604C174.591 9.42978 174.757 9.87723 175.093 10.2625C175.453 10.6478 176.029 10.9834 176.824 11.2651C177.645 11.5469 178.763 11.841 180.176 12.1518C182.513 12.5868 184.398 13.1419 185.84 13.809C187.277 14.4511 188.33 15.2963 188.997 16.3528C189.664 17.3803 189.999 18.6771 189.999 20.2431C189.999 21.9873 189.498 23.5037 188.495 24.788C187.518 26.0475 186.159 27.0087 184.414 27.6757C182.67 28.3428 180.665 28.6784 178.407 28.6784L178.399 28.6742Z" fill="#1B2736"/>
<path d="M41.5143 28.674H36.8616V18.4656C36.8616 17.666 36.0289 17.0155 35.0055 17.0155C33.9822 17.0155 33.1495 17.666 33.1495 18.4656V28.674H28.4968V18.4656C28.4968 15.6566 31.4177 13.3696 35.0055 13.3696C38.5934 13.3696 41.5143 15.6566 41.5143 18.4656V28.674Z" fill="#1B2736"/>
<path d="M34.7402 17.0156C31.1523 17.0156 28.2314 14.7286 28.2314 11.9196V1.71533H32.8841V11.9238C32.8841 12.7234 33.7168 13.3739 34.7402 13.3739C35.7635 13.3739 36.5963 12.7234 36.5963 11.9238V1.71533H41.2489V11.9238C41.2489 14.7328 38.328 17.0197 34.7402 17.0197V17.0156Z" fill="#1467FF"/>
<path d="M27.4733 28.674H22.8206V18.4656C22.8206 17.666 21.9879 17.0155 20.9645 17.0155C19.9412 17.0155 19.1084 17.666 19.1084 18.4656V28.674H14.4558V18.4656C14.4558 15.6566 17.3767 13.3696 20.9645 13.3696C24.5524 13.3696 27.4733 15.6566 27.4733 18.4656V28.674Z" fill="#1467FF"/>
<path d="M20.6992 17.0156C17.1113 17.0156 14.1904 14.7286 14.1904 11.9196V1.71533H18.8431V11.9238C18.8431 12.7234 19.6758 13.3739 20.6992 13.3739C21.7225 13.3739 22.5552 12.7234 22.5552 11.9238V1.71533H27.2079V11.9238C27.2079 14.7328 24.287 17.0197 20.6992 17.0197V17.0156Z" fill="#1B2736"/>
<path d="M13.2828 28.674H8.63019V18.4656C8.63019 17.666 7.79743 17.0155 6.7741 17.0155C5.75077 17.0155 4.91802 17.666 4.91802 18.4656V28.674H0.265381V18.4656C0.265381 15.6566 3.18623 13.3696 6.7741 13.3696C10.362 13.3696 13.2828 15.6566 13.2828 18.4656V28.674Z" fill="#1B2736"/>
<path d="M6.50872 17.0156C2.92085 17.0156 0 14.7286 0 11.9196V1.71533H4.65264V11.9238C4.65264 12.7234 5.48539 13.3739 6.50872 13.3739C7.53205 13.3739 8.36481 12.7234 8.36481 11.9238V1.71533H13.0174V11.9238C13.0174 14.7328 10.0966 17.0197 6.50872 17.0197V17.0156Z" fill="#1467FF"/>
<path d="M137.549 13.3076H127.954C126.849 13.3076 125.953 14.2035 125.953 15.3087V15.3129C125.953 16.418 126.849 17.3139 127.954 17.3139H137.549C138.654 17.3139 139.55 16.418 139.55 15.3129V15.3087C139.55 14.2035 138.654 13.3076 137.549 13.3076Z" fill="#1B2736"/>
</svg>
